<svg width="20" height="20" viewBox="0 0 20 20" fill="none" xmlns="http://www.w3.org/2000/svg">
<path d="M11.8519 2.61751C11.8774 2.58517 11.9091 2.55821 11.9452 2.53819C11.9812 2.51816 12.0208 2.50545 12.0618 2.50081C12.1027 2.49616 12.1442 2.49966 12.1838 2.51111C12.2234 2.52255 12.2603 2.54172 12.2925 2.56751L12.9675 3.10876L10.4994 6.25001H12.0894L13.9444 3.89001L15.5094 5.14376C15.5422 5.17001 15.5693 5.20261 15.5892 5.2396C15.6091 5.27659 15.6214 5.31722 15.6252 5.35905C15.6291 5.40088 15.6245 5.44306 15.6116 5.48307C15.5988 5.52307 15.5781 5.56008 15.5506 5.59188L14.9831 6.25001H16.6169C16.8321 5.92485 16.9179 5.531 16.8575 5.14579C16.7972 4.76059 16.595 4.41187 16.2906 4.16813L13.0737 1.59188C12.9131 1.46322 12.7285 1.36758 12.5307 1.31046C12.333 1.25333 12.1258 1.23586 11.9213 1.25903C11.7167 1.2822 11.5188 1.34557 11.3388 1.44549C11.1588 1.5454 11.0003 1.6799 10.8725 1.84126L7.38062 6.25001H8.975L11.8519 2.61751ZM13.125 11.875C12.9592 11.875 12.8003 11.9409 12.6831 12.0581C12.5658 12.1753 12.5 12.3342 12.5 12.5C12.5 12.6658 12.5658 12.8247 12.6831 12.9419C12.8003 13.0592 12.9592 13.125 13.125 13.125H15C15.1658 13.125 15.3247 13.0592 15.4419 12.9419C15.5592 12.8247 15.625 12.6658 15.625 12.5C15.625 12.3342 15.5592 12.1753 15.4419 12.0581C15.3247 11.9409 15.1658 11.875 15 11.875H13.125ZM3.75 4.37501C3.25272 4.37501 2.77581 4.57255 2.42417 4.92418C2.07254 5.27581 1.875 5.75272 1.875 6.25001V15.3125C1.875 16.0584 2.17132 16.7738 2.69876 17.3012C3.22621 17.8287 3.94158 18.125 4.6875 18.125H15.3125C16.0584 18.125 16.7738 17.8287 17.3012 17.3012C17.8287 16.7738 18.125 16.0584 18.125 15.3125V9.68751C18.125 8.94158 17.8287 8.22621 17.3012 7.69877C16.7738 7.17132 16.0584 6.87501 15.3125 6.87501H3.75C3.58424 6.87501 3.42527 6.80916 3.30806 6.69195C3.19085 6.57474 3.125 6.41577 3.125 6.25001C3.125 6.08425 3.19085 5.92527 3.30806 5.80806C3.42527 5.69085 3.58424 5.62501 3.75 5.62501H6.6125L7.61 4.37501H3.75ZM3.125 15.3125V8.01876C3.32062 8.08751 3.53125 8.12501 3.75 8.12501H15.3125C15.7269 8.12501 16.1243 8.28963 16.4174 8.58265C16.7104 8.87568 16.875 9.2731 16.875 9.68751V15.3125C16.875 15.7269 16.7104 16.1243 16.4174 16.4174C16.1243 16.7104 15.7269 16.875 15.3125 16.875H4.6875C4.2731 16.875 3.87567 16.7104 3.58265 16.4174C3.28962 16.1243 3.125 15.7269 3.125 15.3125Z" fill="black"/>
</svg>
