<svg xmlns="http://www.w3.org/2000/svg" width="170" height="243" fill="none" viewBox="0 0 170 243">
  <path fill="#FBF6F6" fill-opacity=".7" d="M155.134 188.792a5.673 5.673 0 0 1-7.476-7.599l-.214-1.58-.282-.287c-9.483-9.62-25.886-2.953-26.053 10.554-.149 11.989-1.456 24.462 1.562 35.866a45.088 45.088 0 0 0 6.502 14.097 180.738 180.738 0 0 1-43.188-63.565 174.4 174.4 0 0 1-6.235-18.468 181.314 181.314 0 0 1-3.561-15.572 182.84 182.84 0 0 1 4.83-85.418 48.659 48.659 0 0 0 10.973-27.018c.303-3.57.088-7.163-.64-10.67-.866.486-8.981-12.426-8.634-13.557-2.05-1.423-4.716-1.47-6.864-2.8-10.683-6.61-19.564-1.15-19.431 13.6-8.485 9.63-5.02 18.573 4.937 24.52 6.335 3.783 9.86 10.925 15.84 15.297-.183.63-.386 1.251-.569 1.881a184.02 184.02 0 0 0-6.509 35.39c-3.017-11.63-10.45-24.12-17.457-31.283-7.98-8.163-18.89-13.36-28.98-19.138-12.118-6.94-26.837 4.107-23.09 17.56.036.131.072.261.11.391 1.219.163 2.431.368 3.637.616a7.697 7.697 0 0 1 2.33 14.157l-.137.08a76.597 76.597 0 0 0 6.134 9.88c4.724 36.671 28.125 41.339 54.83 31.268.705.066 1.395.137 2.093.188a187.824 187.824 0 0 0 8.316 47.926 178.12 178.12 0 0 0 10.82 26.653l-.171-.297a47.076 47.076 0 0 0-25.029-19.253c-15.258-4.829-32.868-1.802-48.29-4.419-7.423-1.259-13.173 6.517-9.363 13.012l.184.31c2.147.012 4.292.158 6.421.437 1.22.163 2.432.368 3.638.616a7.695 7.695 0 0 1 5.386 10.788 7.7 7.7 0 0 1-3.056 3.369l-.137.081-.282.165a76.662 76.662 0 0 0 21.301 15.248c16.998 26.855 41.176 20.359 62.474 2.02l.015-.006a187.69 187.69 0 0 0 25.407 29.488l41.827-16.762c-.036-.525-.094-1.059-.145-1.578a51.217 51.217 0 0 1-11.85 3.949c1.577-5.052 3.142-10.133 4.719-15.185.041-.099.076-.2.105-.303.793-2.579 1.607-5.15 2.4-7.73v-.003a74.982 74.982 0 0 0-9.146-16.915l-.002-.001Z"/>
</svg>
